<?xml version="1.0" encoding="UTF-8"?>
<!DOCTYPE svg PUBLIC "-//W3C//DTD SVG 1.1//EN" "http://www.w3.org/Graphics/SVG/1.1/DTD/svg11.dtd">
<svg xmlns="http://www.w3.org/2000/svg" version="1.1" width="512px" height="512px" style="shape-rendering:geometricPrecision; text-rendering:geometricPrecision; image-rendering:optimizeQuality; fill-rule:evenodd; clip-rule:evenodd" xmlns:xlink="http://www.w3.org/1999/xlink">
<g><path style="opacity:0.971" fill="#3b3c44" d="M 174.5,99.5 C 199.18,97.3321 221.18,103.832 240.5,119C 292.361,170.527 343.861,222.361 395,274.5C 415.434,305.964 416.768,338.297 399,371.5C 374.502,405.648 341.669,417.815 300.5,408C 289.61,404.223 279.61,398.89 270.5,392C 218.639,340.473 167.139,288.639 116,236.5C 94.0037,202.209 94.0037,167.876 116,133.5C 131.095,114.538 150.595,103.204 174.5,99.5 Z M 180.5,128.5 C 193.965,128.115 206.298,131.615 217.5,139C 240.139,160.638 262.472,182.638 284.5,205C 258,231.5 231.5,258 205,284.5C 184,263.5 163,242.5 142,221.5C 122.739,193.85 124.572,167.684 147.5,143C 157.258,135.144 168.258,130.31 180.5,128.5 Z M 305.5,226.5 C 326.799,247.298 347.965,268.298 369,289.5C 387.229,314.428 386.896,339.095 368,363.5C 345.316,384.978 320.483,387.812 293.5,372C 270.861,350.362 248.528,328.362 226.5,306C 253.035,279.632 279.368,253.132 305.5,226.5 Z"/></g>
<g><path style="opacity:0.983" fill="#fe495f" d="M 305.5,244.5 C 323.465,261.965 341.299,279.632 359,297.5C 374.904,320.91 372.404,342.076 351.5,361C 335.066,371.917 318.399,372.25 301.5,362C 282.195,343.695 263.195,325.029 244.5,306C 265.035,285.632 285.368,265.132 305.5,244.5 Z"/></g>
</svg>
