<?xml version="1.0" encoding="iso-8859-1"?>
<!-- Uploaded to: SVG Repo, www.svgrepo.com, Generator: SVG Repo Mixer Tools -->
<svg fill="#000000" height="800px" width="800px" version="1.1" id="Layer_1" xmlns="http://www.w3.org/2000/svg" xmlns:xlink="http://www.w3.org/1999/xlink" 
	 viewBox="0 0 489.948 489.948" xml:space="preserve">
<g>
	<path d="M483.136,358.925c-8.3-8.3-20.8-8.3-29.1,0l-32.8,32.8l-34.9-34.9l66.6-66.6c8.3-8.3,8.3-20.8,0-29.1
		c-8.3-8.3-20.8-8.3-29.1,0l-3.1,3.1l-201.8-201.8c-30.8-30.8-81.6-37-118.6,0l-4.2,4.2l-60.3-60.4c-8.3-8.3-20.8-8.3-29.1,0
		s-8.3,20.8,0,29.1l60.3,60.3l-5.2,5.2c-33.3,33.3-33.3,86.3,0,119.6l201.3,201.3l-2.6,2.6c-8.3,8.3-8.3,20.8,0,29.1
		c11.8,11.8,25,4.2,29.1,0l67.6-67.6l34.9,34.9l-33.8,33.8c-8.3,8.3-8.3,20.8,0,29.1c11.5,11.5,25,4.7,29.1,0l95.7-95.7
		C491.536,379.725,491.536,367.225,483.136,358.925z M90.936,130.025l38.5-38.5c13.3-13.3,41.8-19.6,61.4,0l200.8,201.8l-99.9,99.9
		l-27.6-27.6l18.2-18.2c8.3-8.3,8.3-20.8,0-29.1c-8.3-8.3-20.8-8.3-29.1,0l-18.2,18.2l-38-38l18.7-18.7c8.3-8.3,8.3-20.8,0-29.1
		c-8.3-8.3-20.8-8.3-29.1,0l-18.7,18.7l-38-38l18.2-18.2c8.3-8.3,8.3-20.8,0-29.1s-20.8-8.3-29.1,0l-18.2,18.2l-9.9-9.9
		C75.536,177.025,72.436,148.525,90.936,130.025z"/>
</g>
</svg>