<?xml version="1.0" encoding="iso-8859-1"?>
<!-- Uploaded to: SVG Repo, www.svgrepo.com, Generator: SVG Repo Mixer Tools -->
<svg fill="#000000" height="800px" width="800px" version="1.1" id="Layer_1" xmlns="http://www.w3.org/2000/svg" xmlns:xlink="http://www.w3.org/1999/xlink" 
	 viewBox="0 0 218.182 218.182" xml:space="preserve">
<g>
	<g>
		<path d="M218.182,78.789c0-17.726-43.573-27.914-91.418-29.926l-0.008-0.006l-0.005,0.006c-5.848-0.246-11.756-0.377-17.66-0.377
			c-52.344,0-105.295,9.706-108.884,28.283H0v64.646l0.306,4.04h1.497c9.961,15.929,60.164,24.242,107.288,24.242
			s97.327-8.314,107.288-24.242h1.803V80.808L218.1,79.73C218.128,79.417,218.182,79.107,218.182,78.789z M130.392,57.114
			c49.272,2.571,79.709,13.707,79.709,21.674c0,0.244-0.042,0.491-0.099,0.741l-0.032,0.104c-0.661,2.171-3.349,4.545-7.857,6.895
			c-0.285,0.145-0.557,0.291-0.857,0.436c-0.685,0.339-1.451,0.676-2.213,1.013c-13.32,5.761-38.088,11.075-70.954,12.594
			c-2.083,0.093-4.177,0.181-6.332,0.243c-0.802,0.024-1.605,0.047-2.415,0.067c-3.343,0.078-6.745,0.129-10.251,0.129
			c-3.507,0-6.908-0.051-10.251-0.129c-0.811-0.02-1.614-0.043-2.415-0.067c-0.808-0.023-1.576-0.063-2.374-0.091L130.392,57.114z
			 M109.091,56.566c3.792,0,7.498,0.051,11.118,0.147l-36.272,43.525c-29.805-1.862-52.324-6.865-64.8-12.261
			c-0.762-0.338-1.528-0.674-2.213-1.014c-0.299-0.145-0.572-0.29-0.857-0.436c-4.509-2.351-7.197-4.724-7.858-6.895l-0.026-0.064
			c-0.063-0.263-0.104-0.524-0.104-0.781C8.081,69.73,47.43,56.566,109.091,56.566z M210.103,139.809l-0.132,0.429
			c-2.728,8.961-39.303,21.378-100.88,21.378s-98.152-12.417-100.88-21.378l-0.13-0.32V91.006
			c14.158,9.813,45.214,15.728,79.055,17.507l0.25,0.208l0.155-0.186c4.462,0.23,8.968,0.387,13.492,0.473
			c0.308,0.006,0.615,0.011,0.924,0.017c2.377,0.04,4.756,0.067,7.135,0.067c2.379,0,4.758-0.027,7.135-0.067
			c0.308-0.005,0.615-0.011,0.924-0.017c38.99-0.741,76.871-6.857,92.952-18.002V139.809z"/>
	</g>
</g>
</svg>